<svg id="eM84jL3gQs01" xmlns="http://www.w3.org/2000/svg" xmlns:xlink="http://www.w3.org/1999/xlink" viewBox="0 0 1920 1080" shape-rendering="geometricPrecision" text-rendering="geometricPrecision"><rect width="2003.300142" height="1149.13229" rx="0" ry="0" transform="matrix(1.695356 0 0 1.533474-730.472094-356.78574)" fill="rgb(99 102 241)" stroke-width="0"/><g transform="matrix(2.099473 0 0 1.627213-1038.82164-387.617096)"><path d="M1686.657182,841.877666L1281.081081,341.052633L1087.510668,980.142247l599.146514-138.264581Z" transform="translate(0 0.000001)" fill="#f8e800" stroke-width="3.84"/><path d="M893.940254,841.877665L1281.08108,341.052632L1087.510667,980.142246L893.940254,841.877665Z" transform="translate(.000001 0.000002)" fill="#e6ad00" stroke-width="3.84"/></g><g transform="matrix(1.665202 0 0 1.345209-1142.341254-155.021445)"><path d="M1686.657182,841.877666L1281.081081,341.052633L1087.510668,980.142247l599.146514-138.264581Z" transform="translate(0 0.000001)" fill="#fff34c" stroke-width="3.84"/><path d="M893.940254,841.877665L1281.08108,341.052632L1087.510667,980.142246L893.940254,841.877665Z" transform="translate(.000001 0.000002)" fill="#ffc30e" stroke-width="3.84"/></g><g transform="matrix(1.218786 0 0 1.345209 243.793963-105.822885)"><path d="M1686.657182,841.877666L1281.081081,341.052633L1087.510668,980.142247l599.146514-138.264581Z" transform="translate(0 0.000001)" fill="#fff01d" stroke-width="3.84"/><path d="M893.940254,841.877665L1281.08108,341.052632L1087.510667,980.142246L893.940254,841.877665Z" transform="translate(.000001 0.000002)" fill="#ffc000" stroke-width="3.84"/></g><rect width="2104.694168" height="313.399716" rx="0" ry="0" transform="matrix(1.928657 0 0 1.074399-1069.616571 830.219354)" fill="#fa8128" stroke-width="0"/><g transform="matrix(.999587-.028732 0.028732 0.999587-244.812838-37.511468)"><path d="M1403.955913,949.077082L1234.992886,577.638699L1169.24175,953.323921l234.714163-4.246839Z" transform="translate(0 0.000001)" fill="#e8d800" stroke-width="3.84"/><path d="M1022.987195,912.546238l212.00569-334.90754-65.6303,371.481331-146.37539-36.573791Z" transform="translate(.000001 0.000002)" fill="#cf9c00" stroke-width="3.84"/></g><g transform="translate(23.194397 28.957958)"><path d="M1686.657182,841.877666L1281.081081,341.052633L1087.510668,980.142247l599.146514-138.264581Z" transform="translate(0 0.000001)" fill="#fe0" stroke-width="3.84"/><path d="M893.940254,841.877665L1281.08108,341.052632L1087.510667,980.142246L893.940254,841.877665Z" transform="translate(.000001 0.000002)" fill="#e6ad00" stroke-width="3.84"/></g></svg>
